<?xml version="1.0" encoding="utf-8"?>
<svg version="1.1" xmlns="http://www.w3.org/2000/svg" viewBox="0 0 1080 1080" fill="none">
  <!-- This is mathematically extracted from the EXACT path data inside your new uploaded file -->
  <!-- It removes the rounded background square and isolates only the interlocking S mark -->
  
  <g transform="translate(0, 0)">
    <!-- Top left curve of the S shape -->
    <path d="M913.6,561c2,39.3-5.2,76.5-19.4,111c0,0-0.4,1-0.9,2.8c-2.4,10-6.1,19.3-9.5,28.7c-5,14.2-11.2,27.8-18,41.2
	c-7.9,15.1-16.8,29.4-26.6,42.8c-10.4,14-22.1,26.9-34.1,38.8c-12.7,12.5-26.4,23.9-40.8,34.2c-14.7,10.4-30.5,19.5-46.7,27.3
	c-16.5,7.9-34,14.3-52,19.1l0,0c-17.7,4.7-36.5,7.7-55.5,9c-9.5,0.7-19.5,0.9-29.6,0.5c-30-1.4-58.8-8-85.9-18.7
	c-26.6-10.4-51.1-25.1-73.2-43.2l0,0l89.6-154.2l0,0l-0.3-0.5l140.6,0c0.3,0,0.5-0.1,0.5-0.5c2.6-26.8-5-53.5-19.5-76.3l0,0
	c-14.4-22.8-35.9-41-61.1-52l-231.2,0l0,0c10.4-23,24.7-44,42.3-62c16.8-16.7,36.5-30.4,58.3-40.4l0,0
	c22.1-10.2,46.1-16.3,71.1-17.5l0,0l0,0c23.5-1.2,46.7,2,68.4,9c0,0,1.2,0.5,3.3,1.6c11.6,4.5,22.4,10.2,32.7,16.5
	c15.8,9.7,30.3,21.5,43.2,34.9c13,13.5,24.4,28.5,33.9,44.7c9.7,16.5,17.5,34.1,23.2,52.5C910,480.9,913,520.4,913.6,561" fill="#FBBF24"/>
	
    <!-- Bottom right curve of the S shape -->
    <path d="M127.3,716.4l246.3,0l0-0.5l47.8-82.2l0,0l36.5,63.1l20-34.4l-44.5-76.5l-0.2-0.5l-0.2-0.4l-48.5-83.9l0,0
	c1.4-4,2.9-8,4.5-12c14.2-35.9,35.3-64.7,61.1-83.6L242.3,405.3l0.3-0.5l0,0C171,455.5,129.5,537.8,127.3,716.4" fill="#D97706"/>
	
    <!-- Central interlocking structure -->
    <path d="M482.9,891.9l-0.3,0l-123.4-213c-7.9-13.8-11.9-29.3-12.2-44.9l-221,0C140.2,745,172.5,836.7,233.1,911.7
	c19.7,24.4,42.4,45.8,67.6,63.4C366,1021.2,442.2,1048.7,522.4,1051l-44.9-77.5l-0.2-0.4L482.9,891.9z" fill="#F59E0B"/>
	
    <!-- Center cutouts / structural blocks -->
    <path d="M570,300l0,0c45.4,11.2,86.2,32.7,120.3,62.8l0,0c23.9,21.1,44.2,46.3,59.8,74.1l-117.7,202.9L570,300z" fill="#D97706"/>
    <path d="M570,300l0,0l-0.3,0.5L340,696.6L242.3,405.3l0.3-0.5l0,0c13.7-20.4,30.3-38.3,49.4-53.5l0,0
	c23.9-19,51.8-33.5,81.4-42.6c0,0,0.5-0.2,1.2-0.4C436.4,290.4,504.6,284.1,570,300" fill="#FBBF24"/>
  </g>
</svg>