<?xml version="1.0" encoding="UTF-8"?>
<svg xmlns="http://www.w3.org/2000/svg" width="128" height="128" viewBox="0 0 128 128" fill="none">
  <rect x="8" y="8" width="112" height="112" rx="28" fill="#3e4f6b"/>
  <path d="M83.5 42.5c-5.2-6.6-13.3-10.5-23.6-10.5-14.7 0-25.4 7.8-25.4 19.6 0 12.6 11.2 16.7 23.7 19.6 10.4 2.4 15.3 4.2 15.3 8.8 0 4.3-4.6 7.1-12.2 7.1-8.2 0-14.3-3-19.1-8.5l-11 9.1c7.1 8.5 17.2 12.9 30.4 12.9 16.7 0 28.2-7.6 28.2-20.1 0-13.2-11.6-16.8-24.6-19.9-9.7-2.3-14.4-3.8-14.4-8.3 0-4.0 4.1-6.6 11.0-6.6 7.1 0 12.2 2.3 16.0 6.6L83.5 42.5z" fill="#fc751c"/>
</svg>
