<?xml version="1.0" encoding="UTF-8"?>
<svg id="Layer_3" data-name="Layer 3" xmlns="http://www.w3.org/2000/svg" viewBox="0 0 741.32 186.47">
  <defs>
    <style>
      .cls-1 {
        fill: #18181b;
      }

      .cls-2 {
        fill: #F59E0B;
      }

      .cls-3 {
        fill: #fff;
      }
    </style>
  </defs>
  <rect class="cls-1" width="189.2" height="186.47" rx="30.69" ry="30.69"/>
  <g>
    <path class="cls-1" d="M350.44,125.11h-42.86c-5.4,0-9.79-4.39-9.79-9.79v-53.95h10.6v53.14h42.05v10.6Z"/>
    <path class="cls-1" d="M271.93,125.11h-46.4v-10.6h46.4c4.83,0,7.02-4.16,7.02-8.02s-2.2-8.02-7.02-8.02c-.13,0-.26,0-.39-.01l-27.12-2c-10.43-.51-18.12-7.44-18.3-16.51,0-.03,0-.07,0-.1v-2c0-9.79,7.66-16.62,18.62-16.62h40.7v10.6h-40.7c-1.88,0-8.02.43-8.02,6.02v1.94c.11,3.95,4.22,5.9,8.27,6.09.05,0,.1,0,.15,0l27.01,1.99c9.94.11,17.41,8.08,17.41,18.62s-7.58,18.62-17.62,18.62Z"/>
    <path class="cls-1" d="M554.54,71.82v-10.6h-49.54c-5.41,0-9.82,4.4-9.82,9.82v44.25c0,5.41,4.4,9.82,9.82,9.82h49.54v-10.6h-48.75v-16.05h44.65v-10.6h-44.65v-16.05h48.75Z"/>
    <path class="cls-2" d="M617.77,88.16v-9.34c0-9.72-7.88-17.6-17.6-17.6h-36.74v10.6h36.74c3.86,0,7,3.13,7,7v5.54c0,1.94-1.57,3.51-3.51,3.51h-32.08v10.6h32.08c1.94,0,3.51,1.57,3.51,3.51v5.54c0,3.86-3.13,7-7,7h-36.74v10.6h36.74c9.72,0,17.59-7.88,17.59-17.59v-9.35c0-1.15-.37-2.2-.99-3.07-.83-1.14-.83-2.73,0-3.88.62-.86.99-1.92.99-3.07Z"/>
    <path class="cls-1" d="M421.67,125.27h11.94l-30.49-58.77c-1.69-3.26-5.02-5.29-8.68-5.3h-.03c-3.65,0-6.98,2.01-8.68,5.24l-31,58.83h11.98l9.25-17.56h36.61l9.11,17.56ZM381.54,97.11l12.86-24.41,12.66,24.41h-25.52Z"/>
    <polygon class="cls-1" points="489.44 61.22 417.44 61.22 417.44 71.82 447.64 71.82 447.64 125.27 458.23 125.27 458.23 71.82 489.44 71.82 489.44 61.22"/>
    <path class="cls-2" d="M722.8,125.11h-16.04c-10.22,0-18.53-8.31-18.53-18.53v-26.83c0-10.22,8.31-18.53,18.53-18.53h16.04c10.22,0,18.53,8.31,18.53,18.53v26.83c0,10.22-8.31,18.53-18.53,18.53ZM706.75,71.82c-4.37,0-7.93,3.56-7.93,7.93v26.83c0,4.37,3.56,7.93,7.93,7.93h16.04c4.37,0,7.93-3.56,7.93-7.93v-26.83c0-4.37-3.56-7.93-7.93-7.93h-16.04Z"/>
    <path class="cls-2" d="M661.95,85.45h-18.04c-2.84,0-5.52.66-7.93,1.81v-6.32c0-5.03,4.09-9.12,9.12-9.12h33.81v-10.6h-33.81c-10.87,0-19.72,8.85-19.72,19.72v25.64c0,10.22,8.31,18.53,18.53,18.53h18.04c10.22,0,18.53-8.31,18.53-18.53v-2.6c0-10.22-8.31-18.53-18.53-18.53ZM669.88,106.58c0,4.37-3.56,7.93-7.93,7.93h-18.04c-4.37,0-7.93-3.56-7.93-7.93v-2.6c0-4.37,3.56-7.93,7.93-7.93h18.04c4.37,0,7.93,3.56,7.93,7.93v2.6Z"/>
  </g>
  <path class="cls-2" d="M14.69,56.05L85.78,16.38c1.78-1.2,3.91-1.9,6.17-1.9,2.07,0,4.05.58,5.74,1.6l76.81,42.86v25.19s-82.5-46.04-82.5-46.04l-54.56,30.45c-.2.11-.75.42-.75,1.27s.54,1.16.75,1.27l80.45,44.9-22.51,12.63L14.69,83.59v-27.54Z"/>
  <path class="cls-3" d="M94.9,57.31l-22.44,12.67,79.29,45.4c.2.11.75.42.75,1.27s-.54,1.16-.75,1.27l-50.3,28.08-4.27,2.38-4.27-2.38L14.69,102.33v25.2s77.14,43.07,77.14,43.07c1.67.93,3.51,1.4,5.36,1.4s3.7-.46,5.36-1.4l71.95-40.17v-27.34l-79.6-45.78Z"/>
</svg>