<?xml version="1.0" encoding="UTF-8"?>
<svg id="Layer_3" data-name="Layer 3" xmlns="http://www.w3.org/2000/svg" viewBox="0 0 515.79 64.07">
  <defs>
    <style>
      .cls-1 {
        fill: #18181b;
      }

      .cls-2 {
        fill: #D4AF37;
      }
    </style>
  </defs>
  <path class="cls-1" d="M124.9,63.91h-42.86c-5.4,0-9.79-4.39-9.79-9.79V.17h10.6v53.14h42.05v10.6Z"/>
  <path class="cls-1" d="M46.4,63.91H0v-10.6h46.4c4.83,0,7.02-4.16,7.02-8.02s-2.2-8.02-7.02-8.02c-.13,0-.26,0-.39-.01l-27.12-2C8.45,34.74.76,27.81.58,18.74c0-.03,0-.07,0-.1v-2C.58,6.85,8.24.02,19.2.02h40.7v10.6H19.2c-1.88,0-8.02.43-8.02,6.02v1.94c.11,3.95,4.22,5.9,8.27,6.09.05,0,.1,0,.15,0l27.01,1.99c9.94.11,17.41,8.08,17.41,18.62s-7.58,18.62-17.62,18.62Z"/>
  <path class="cls-1" d="M329,10.62V.02h-49.54c-5.41,0-9.82,4.4-9.82,9.82v44.25c0,5.41,4.4,9.82,9.82,9.82h49.54v-10.6h-48.75v-16.05h44.65v-10.6h-44.65V10.62h48.75Z"/>
  <path class="cls-2" d="M392.23,26.96v-9.34C392.23,7.9,384.35.02,374.64.02h-36.74v10.6h36.74c3.86,0,7,3.13,7,7v5.54c0,1.94-1.57,3.51-3.51,3.51h-32.08v10.6h32.08c1.94,0,3.51,1.57,3.51,3.51v5.54c0,3.86-3.13,7-7,7h-36.74v10.6h36.74c9.72,0,17.59-7.88,17.59-17.59v-9.35c0-1.15-.37-2.2-.99-3.07-.83-1.14-.83-2.73,0-3.88.62-.86.99-1.92.99-3.07Z"/>
  <path class="cls-1" d="M196.13,64.07h11.94l-30.49-58.77c-1.69-3.26-5.02-5.29-8.68-5.3h-.03c-3.65,0-6.98,2.01-8.68,5.24l-31,58.83h11.98l9.25-17.56h36.61l9.11,17.56ZM156,35.91l12.86-24.41,12.66,24.41h-25.52Z"/>
  <polygon class="cls-1" points="263.9 .02 191.9 .02 191.9 10.62 222.1 10.62 222.1 64.07 232.7 64.07 232.7 10.62 263.9 10.62 263.9 .02"/>
  <path class="cls-2" d="M497.26,63.91h-16.04c-10.22,0-18.53-8.31-18.53-18.53v-26.83C462.69,8.33,471,.02,481.22.02h16.04c10.22,0,18.53,8.31,18.53,18.53v26.83c0,10.22-8.31,18.53-18.53,18.53ZM481.22,10.62c-4.37,0-7.93,3.56-7.93,7.93v26.83c0,4.37,3.56,7.93,7.93,7.93h16.04c4.37,0,7.93-3.56,7.93-7.93v-26.83c0-4.37-3.56-7.93-7.93-7.93h-16.04Z"/>
  <path class="cls-2" d="M436.42,24.25h-18.04c-2.84,0-5.52.66-7.93,1.81v-6.32c0-5.03,4.09-9.12,9.12-9.12h33.81V.02h-33.81c-10.87,0-19.72,8.85-19.72,19.72v25.64c0,10.22,8.31,18.53,18.53,18.53h18.04c10.22,0,18.53-8.31,18.53-18.53v-2.6c0-10.22-8.31-18.53-18.53-18.53ZM444.35,45.38c0,4.37-3.56,7.93-7.93,7.93h-18.04c-4.37,0-7.93-3.56-7.93-7.93v-2.6c0-4.37,3.56-7.93,7.93-7.93h18.04c4.37,0,7.93,3.56,7.93,7.93v2.6Z"/>
</svg>